<?xml version="1.0" encoding="utf-8"?>
<!-- Generator: Adobe Illustrator 24.1.0, SVG Export Plug-In . SVG Version: 6.00 Build 0)  -->
<svg version="1.1" id="Layer_1" xmlns="http://www.w3.org/2000/svg" xmlns:xlink="http://www.w3.org/1999/xlink" x="0px" y="0px"
	 viewBox="0 0 16 16" style="enable-background:new 0 0 16 16;" xml:space="preserve">
<style type="text/css">
	.st0{fill:#505050;}
	.st1{fill:#888888;}
	.st2{fill:#666666;}
	.st3{fill:#131313;}
</style>
<g>
	<path class="st0" d="M14,16H2c-1.1,0-2-0.9-2-2V2c0-1.1,0.9-2,2-2h12c1.1,0,2,0.9,2,2v12C16,15.1,15.1,16,14,16z"/>
</g>
<circle class="st1" cx="4" cy="8" r="1.5"/>
<path class="st2" d="M2,1h12c0.3,0,0.5,0.1,0.7,0.3l0.7-0.7C15.1,0.2,14.6,0,14,0H2C1.4,0,0.9,0.2,0.6,0.6l0.7,0.7
	C1.5,1.1,1.7,1,2,1z"/>
<path class="st3" d="M14,15H2c-0.3,0-0.5-0.1-0.7-0.3l-0.7,0.7C0.9,15.8,1.4,16,2,16h12c0.6,0,1.1-0.2,1.4-0.6l-0.7-0.7
	C14.5,14.9,14.3,15,14,15z"/>
<path class="st3" d="M14.7,1.3C14.9,1.5,15,1.7,15,2v12c0,0.3-0.1,0.5-0.3,0.7l0.7,0.7c0.4-0.4,0.6-0.9,0.6-1.4V2
	c0-0.6-0.2-1.1-0.6-1.4L14.7,1.3z"/>
<path class="st1" d="M1,14V2c0-0.3,0.1-0.5,0.3-0.7L0.6,0.6C0.2,0.9,0,1.4,0,2v12c0,0.6,0.2,1.1,0.6,1.4l0.7-0.7
	C1.1,14.5,1,14.3,1,14z"/>
</svg>
